<?xml version="1.0" encoding="UTF-8"?>
<svg id="Layer_1" xmlns="http://www.w3.org/2000/svg" version="1.1" viewBox="0 0 1436.7 535.3">
  <!-- Generator: Adobe Illustrator 30.6.0, SVG Export Plug-In . SVG Version: 2.1.4 Build 109)  -->
  <defs>
    <style>
      .st0 {
        fill: #ff0013;
      }

      .st1 {
        fill: #0a0a0a;
      }
    </style>
  </defs>
  <g>
    <polygon class="st1" points="703 0 840.4 0 980 193.1 841.5 387.8 780.2 276.9 841.5 193.9 703 0"/>
    <polygon class="st1" points="759.2 109.2 706.7 109.2 668 252.6 538.8 252.6 602.7 0 681.2 0 759.2 109.2"/>
    <polygon class="st1" points="821.3 387.8 502.4 387.8 531.4 277.1 760.1 277.1 821.3 387.8"/>
  </g>
  <polygon class="st0" points="0 385.5 100.6 0 219.3 0 301.2 149.4 457.2 0 583.7 0 481.9 385.5 353.6 385.5 393.4 228.9 252.4 346.5 171.7 227.1 128.9 385.5 0 385.5"/>
  <polygon class="st0" points="1436.7 0 1334.9 385.5 1206.6 385.5 1246.3 228.9 1105.4 346.5 1024.7 227.1 981.9 385.5 864.8 385.5 1001.8 193.1 929.4 92.8 953.6 0 1072.2 0 1154.2 149.4 1310.2 0 1436.7 0"/>
  <path class="st1" d="M545.2,417.6h98.4l-8.6,31.6h-60.5l-3.1,11.7h56.4l-7.4,27.9h-56.4l-3.5,12.5h61.3l-8.4,31.6h-99.2l31-115.4Z"/>
  <path class="st1" d="M676.9,472.3l-23.2-54.7h41.7l10.7,28,24.9-28h44.7l-52.7,56.4,25.2,59h-41.7l-12.4-32.6-29.2,32.6h-44.7l56.7-60.6Z"/>
  <path class="st1" d="M788.2,417.6h38.7c21.3,0,34.3,4.1,42.8,12.7,6.1,6.1,9.1,14.2,9.1,23.2,0,28.8-21.8,48.1-58.3,48.1h-16.3l-8.4,31.3h-38.6l31-115.4ZM818.5,474.2c14.7,0,21.4-6.6,21.4-15.3s-1-4.9-2.8-6.8c-2.6-2.6-7.3-3.6-11.5-3.6h-7.3l-6.8,25.7h6.9Z"/>
  <path class="st1" d="M899.2,417.6h45c21.3,0,34.8,4.6,42.5,12.4,6.4,6.4,9.1,15,9.1,24.1,0,18-9.4,33.5-32.1,40.5l16,38.4h-41.5l-12.9-33h-9.6l-8.9,33h-38.6l31-115.4ZM936.9,472.5c12.9,0,19.6-5.9,19.6-13.2s-.8-4.4-2.5-6.1c-2.1-2.1-5.9-3.3-11.4-3.3h-13.7l-6.1,22.6h14Z"/>
  <path class="st1" d="M1019.5,417.6h98.4l-8.6,31.6h-60.5l-3.1,11.7h56.4l-7.4,27.9h-56.4l-3.5,12.5h61.3l-8.4,31.6h-99.2l31-115.4Z"/>
  <path class="st1" d="M1102.1,514.4l22.1-26.4c13.2,11,26.7,16.3,38.9,16.3s8.4-1.8,8.4-5.1-2.1-4.8-19-11c-21.4-7.9-31.5-15.5-31.5-32.5s20.4-40.4,51.9-40.4,38.9,6.6,51.4,17.3l-22.1,26.4c-8.7-7.1-21.1-12.9-33.3-12.9s-8.4,1.3-8.4,4.6,2.5,4.1,18.5,10.1c19.6,7.3,32.1,15.5,32.1,33.1s-19.1,41.4-52.2,41.4-42.8-8.2-56.9-20.9Z"/>
  <path class="st1" d="M1212.5,514.4l22.1-26.4c13.2,11,26.7,16.3,38.9,16.3s8.4-1.8,8.4-5.1-2.1-4.8-19-11c-21.4-7.9-31.5-15.5-31.5-32.5s20.4-40.4,51.9-40.4,38.9,6.6,51.4,17.3l-22.1,26.4c-8.7-7.1-21.1-12.9-33.3-12.9s-8.4,1.3-8.4,4.6,2.5,4.1,18.5,10.1c19.6,7.3,32.1,15.5,32.1,33.1s-19.1,41.4-52.2,41.4-42.8-8.2-56.9-20.9Z"/>
</svg>